<svg width="12" height="12" viewBox="0 0 12 12" fill="none" xmlns="http://www.w3.org/2000/svg">
<path d="M1.3875 3.1875C1.5125 3.0625 1.6605 3 1.8315 3C2.00217 3 2.15 3.0625 2.275 3.1875L5.9375 6.85L9.6125 3.175C9.72917 3.05833 9.875 3 10.05 3C10.225 3 10.375 3.0625 10.5 3.1875C10.625 3.3125 10.6875 3.4605 10.6875 3.6315C10.6875 3.80217 10.625 3.95 10.5 4.075L6.2875 8.275C6.2375 8.325 6.18333 8.3605 6.125 8.3815C6.06667 8.40217 6.00417 8.4125 5.9375 8.4125C5.87083 8.4125 5.80833 8.40217 5.75 8.3815C5.69167 8.3605 5.6375 8.325 5.5875 8.275L1.375 4.0625C1.25833 3.94583 1.2 3.80217 1.2 3.6315C1.2 3.4605 1.2625 3.3125 1.3875 3.1875Z" fill="white"/>
</svg>
